# Blender v2.78 (sub 0) OBJ File: ''
# www.blender.org
mtllib cornell.mtl
o Floor
v -1.000000 0.000000 -1.000000
v -1.000000 0.000000 1.000000
v 1.000000 -0.000000 1.000000
v 1.000000 -0.000000 -1.000000
vn 0.0000 1.0000 0.0000
usemtl White
s 1
f 1//1 2//1 3//1
f 1//1 3//1 4//1
o BackWall
v 1.000000 -0.000000 1.000000
v -1.000000 0.000000 1.000000
v -1.000000 2.000000 1.000000
v 1.000000 2.000000 1.000000
vn 0.0000 -0.0000 -1.0000
usemtl White
s 1
f 5//2 6//2 7//2
f 5//2 7//2 8//2
o ShortBox
v -0.533010 0.600000 -0.746080
v -0.703340 0.000000 -0.176180
v -0.533010 0.000000 -0.746080
v -0.703340 0.600000 -0.176180
v -0.124250 0.000000 -0.003100
v -0.124250 0.600000 -0.003100
v 0.046080 0.000000 -0.573010
v 0.046080 0.600000 -0.573010
vn -0.9581 0.0000 -0.2864
vn -0.2864 -0.0000 0.9581
vn 0.9581 -0.0000 0.2864
vn -0.0000 -1.0000 -0.0000
vn 0.2864 0.0000 -0.9581
vn -0.0000 1.0000 0.0000
usemtl White
s 1
f 9//3 11//3 10//3
f 12//4 10//4 13//4
f 14//5 13//5 15//5
f 13//6 10//6 11//6
f 11//7 9//7 16//7
f 9//8 12//8 14//8
f 9//3 10//3 12//3
f 12//4 13//4 14//4
f 14//5 15//5 16//5
f 13//6 11//6 15//6
f 11//7 16//7 15//7
f 9//8 14//8 16//8
o LeftWall
v 1.000000 2.000000 -1.000000
v 1.000000 -0.000000 -1.000000
v 1.000000 -0.000000 1.000000
v 1.000000 2.000000 1.000000
vn -1.0000 0.0000 -0.0000
usemtl Red
s 1
f 17//9 18//9 19//9
f 17//9 19//9 20//9
o TallBox
v -0.049566 1.200000 0.108948
v 0.146890 -0.000000 0.673480
v -0.049566 -0.000000 0.108948
v 0.523986 1.200000 -0.090649
v 0.523986 0.000000 -0.090649
v 0.720440 1.200000 0.473880
v 0.146890 1.200000 0.673480
v 0.720440 -0.000000 0.473880
vn -0.9444 -0.0000 0.3287
vn -0.3287 0.0000 -0.9444
vn 0.3287 -0.0000 0.9444
vn 0.9444 0.0000 -0.3287
vn 0.0000 1.0000 0.0000
vn 0.0000 -1.0000 -0.0000
usemtl White
s 1
f 21//10 23//10 22//10
f 24//11 25//11 23//11
f 26//12 27//12 22//12
f 28//13 25//13 24//13
f 26//14 24//14 21//14
f 23//15 25//15 28//15
f 21//10 22//10 27//10
f 24//11 23//11 21//11
f 26//12 22//12 28//12
f 28//13 24//13 26//13
f 26//14 21//14 27//14
f 23//15 28//15 22//15
o RightWall
v -1.000000 2.000000 1.000000
v -1.000000 0.000000 1.000000
v -1.000000 0.000000 -1.000000
v -1.000000 2.000000 -1.000000
vn 1.0000 -0.0000 0.0000
usemtl Green
s 1
f 29//16 30//16 31//16
f 29//16 31//16 32//16
o Ceiling
v -1.000000 2.000000 1.000000
v -1.000000 2.000000 -1.000000
v 1.000000 2.000000 -1.000000
v 1.000000 2.000000 1.000000
vn -0.0000 -1.0000 -0.0000
usemtl White
s 1
f 33//17 34//17 35//17
f 33//17 35//17 36//17
